<?xml version="1.0" encoding="utf-8"?>
<!-- Generator: Adobe Illustrator 27.5.0, SVG Export Plug-In . SVG Version: 6.00 Build 0)  -->
<svg version="1.1" xmlns="http://www.w3.org/2000/svg" xmlns:xlink="http://www.w3.org/1999/xlink" x="0px" y="0px"
	 viewBox="0 0 500 500" style="enable-background:new 0 0 500 500;" xml:space="preserve">
<g id="BACKGROUND">
	<g>
		<rect style="fill:#0B051C;" width="500" height="500"/>
	</g>
</g>
<g id="OBJECTS">
	<g>
		<g>
			<path id="SVGID_x5F_1_x5F_" style="fill:none;" d="M363.307,189.11H136.693c22.076-39.84,64.533-66.822,113.307-66.822
				S341.231,149.27,363.307,189.11z"/>
			<text>			<textPath  xlink:href="#SVGID_x5F_1_x5F_" startOffset="-274.872%">
<tspan  style="fill:#E6D3B3; font-family:'Metropolis-Bold'; font-size:11.2351px;">ORIGINAL TASTE</tspan>			</textPath>
</text>
			
				<text transform="matrix(1 0 0 1 214.1045 316.2441)" style="fill:#E6D3B3; font-family:'Metropolis-Bold'; font-size:11.2351px;">FAMILY CO.</text>
			
				<text transform="matrix(1 0 0 1 120.834 268.126)" style="fill:#E6D3B3; font-family:'Girassol-Regular'; font-size:49.6037px; letter-spacing:1;">RESTAURANT</text>
		</g>
		<g>
			<g>
				<path style="fill:#E6D3B3;" d="M316.895,308.438l-0.002-1.996l68.768-0.094c0.481-5.86,5.168-10.548,11.028-11.029v-16.244
					h0.998c15.061,0,27.315-12.253,27.315-27.314c0-15.062-12.253-27.315-27.315-27.315h-0.998V208.2
					c-5.86-0.482-10.547-5.168-11.028-11.028H114.55c-0.487,5.93-5.281,10.658-11.239,11.044v16.229h-0.998
					c-15.062,0-27.315,12.253-27.315,27.315c0,15.061,12.254,27.314,27.315,27.314h0.998v16.229
					c5.958,0.386,10.752,5.114,11.239,11.044l68.383-0.001v1.996l-70.338,0.001v-0.998c0-5.554-4.518-10.071-10.071-10.071
					l-0.197,0.011l-1.012,0.014v-16.244c-15.701-0.529-28.313-13.467-28.313-29.294c0-15.828,12.612-28.766,28.313-29.294v-16.252
					l1.166,0.028c0.002,0,0.003,0,0.005,0c5.593,0,10.108-4.517,10.108-10.068v-0.998h275.021v0.998
					c0,5.553,4.518,10.071,10.071,10.071h0.998v16.221c15.701,0.528,28.313,13.466,28.313,29.294
					c0,15.827-12.611,28.765-28.313,29.294v16.22h-0.998c-5.554,0-10.071,4.518-10.071,10.071v0.997L316.895,308.438z"/>
			</g>
			<g>
				<g>
					<path style="fill:#E6D3B3;" d="M234.817,353.659l-4.516-7.101l4.516-7.1l4.516,7.1L234.817,353.659z M232.666,346.559
						l2.15,3.382l2.15-3.382l-2.15-3.381L232.666,346.559z"/>
				</g>
				<g>
					<path style="fill:#E6D3B3;" d="M244.939,353.659l-4.516-7.101l4.516-7.1l4.516,7.1L244.939,353.659z M242.789,346.559
						l2.15,3.382l2.15-3.382l-2.15-3.381L242.789,346.559z"/>
				</g>
				<g>
					<path style="fill:#E6D3B3;" d="M255.061,353.659l-4.516-7.101l4.516-7.1l4.517,7.1L255.061,353.659z M252.91,346.559
						l2.15,3.382l2.151-3.382l-2.151-3.381L252.91,346.559z"/>
				</g>
				<g>
					<path style="fill:#E6D3B3;" d="M265.183,353.659l-4.516-7.101l4.516-7.1l4.517,7.1L265.183,353.659z M263.032,346.559
						l2.15,3.382l2.151-3.382l-2.151-3.381L263.032,346.559z"/>
				</g>
			</g>
		</g>
		<g>
			<g>
				<g>
					<rect x="127.207" y="217.017" style="fill:#A9924E;" width="245.585" height="1.996"/>
				</g>
				<g>
					<rect x="127.207" y="284.506" style="fill:#A9924E;" width="245.585" height="1.996"/>
				</g>
			</g>
			<g>
				<path style="fill:#A9924E;" d="M366.454,188.14h-38.231c-0.426,0-0.771-0.345-0.771-0.771v-3.051
					c0-5.204,2.986-9.673,7.793-11.664c4.809-1.993,10.079-0.943,13.76,2.736c0.301,0.301,0.301,0.789,0,1.09
					c-0.301,0.301-0.789,0.301-1.09,0c-3.23-3.23-7.858-4.15-12.08-2.402c-4.22,1.748-6.842,5.672-6.842,10.24v2.28h36.146
					c-13.619-24-34.826-43.522-59.845-55.056c-0.387-0.178-0.556-0.636-0.378-1.023c0.178-0.387,0.639-0.556,1.023-0.377
					c25.712,11.852,47.443,32.043,61.189,56.852c0.133,0.239,0.129,0.53-0.01,0.765C366.979,187.996,366.727,188.14,366.454,188.14z
					"/>
			</g>
			<g>
				<path style="fill:#A9924E;" d="M171.777,188.14h-38.232c-0.273,0-0.525-0.144-0.664-0.379c-0.139-0.235-0.142-0.526-0.01-0.765
					c13.747-24.808,35.476-44.997,61.184-56.85c0.387-0.179,0.845-0.009,1.022,0.377c0.178,0.387,0.009,0.844-0.377,1.022
					c-25.016,11.534-46.222,31.055-59.839,55.054h36.145v-3.574c0-4.348-2.495-8.082-6.512-9.746
					c-4.017-1.663-8.422-0.788-11.495,2.287c-0.301,0.301-0.789,0.301-1.09,0c-0.301-0.301-0.301-0.789,0-1.09
					c3.523-3.523,8.571-4.527,13.175-2.621c4.604,1.907,7.463,6.186,7.463,11.169v4.344
					C172.547,187.795,172.203,188.14,171.777,188.14z"/>
			</g>
			<g>
				<path style="fill:#A9924E;" d="M250,372.21c-29.091,0-56.169-11.618-76.245-32.715l-5.571-5.854l6.482-4.828
					c4.349-3.239,6.952-8.082,7.242-13.405h-32.858c-2.436,0-3.71,1.729-4.061,3.212c-0.351,1.48,0.012,3.598,2.189,4.69
					l-0.895,1.783c-3.013-1.511-3.796-4.571-3.237-6.934c0.56-2.363,2.632-4.748,6.003-4.748h34.881v0.998
					c0,6.35-2.942,12.184-8.073,16.005l-4.676,3.482l4.02,4.224c19.695,20.696,46.26,32.094,74.799,32.094
					c28.498,0,55.036-11.369,74.724-32.013l4.05-4.246l-4.723-3.48c-5.183-3.821-8.154-9.677-8.154-16.066v-0.998h31.551
					c3.447,0,5.483,2.457,5.973,4.892c0.489,2.435-0.44,5.487-3.619,6.819l-0.771-1.842c2.284-0.956,2.739-3.067,2.434-4.584
					c-0.305-1.518-1.539-3.289-4.016-3.289H317.92c0.291,5.357,2.92,10.222,7.315,13.461l6.547,4.825l-5.613,5.885
					C306.1,360.621,279.049,372.21,250,372.21z"/>
			</g>
			<g>
				<rect x="214.935" y="325.264" style="fill:#A9924E;" width="70.131" height="1.996"/>
			</g>
			<g>
				<g>
					<path style="fill:#A9924E;" d="M219.751,188.14H182.76c-0.426,0-0.771-0.345-0.771-0.771s0.345-0.77,0.771-0.77h36.992
						c0.426,0,0.771,0.345,0.771,0.77S220.177,188.14,219.751,188.14z"/>
				</g>
				<g>
					<path style="fill:#A9924E;" d="M317.24,188.14h-36.992c-0.426,0-0.771-0.345-0.771-0.771s0.345-0.77,0.771-0.77h36.992
						c0.426,0,0.77,0.345,0.77,0.77S317.666,188.14,317.24,188.14z"/>
				</g>
			</g>
			<g>
				<g>
					<path style="fill:#A9924E;" d="M94.002,261.114c-0.264,0-0.509-0.135-0.65-0.356l-5.459-8.584c-0.16-0.253-0.16-0.575,0-0.827
						l5.459-8.585c0.283-0.444,1.018-0.444,1.301,0l5.459,8.585c0.16,0.252,0.16,0.574,0,0.827l-5.459,8.584
						C94.51,260.979,94.265,261.114,94.002,261.114z M89.455,251.76l4.546,7.147l4.546-7.147l-4.546-7.149L89.455,251.76z"/>
				</g>
				<g>
					<path style="fill:#A9924E;" d="M405.999,261.114c-0.264,0-0.509-0.135-0.65-0.356l-5.46-8.584c-0.16-0.253-0.16-0.575,0-0.828
						l5.46-8.585c0.142-0.222,0.387-0.357,0.65-0.357l0,0c0.264,0,0.509,0.135,0.65,0.357l5.459,8.585
						c0.16,0.252,0.16,0.574,0,0.826l-5.459,8.584C406.508,260.979,406.263,261.114,405.999,261.114z M401.452,251.76l4.547,7.147
						l4.546-7.147l-4.546-7.149L401.452,251.76z"/>
				</g>
			</g>
			<g>
				<path style="fill:#A9924E;" d="M243.297,144.39c-1.241-2.657-3.475-5.007-6.33-5.882c-1.231-0.377-3.737-0.788-4.87,0.162
					c-0.061,0.051-0.295,0.248-0.356,0.299c-1.132,0.95-1.163,3.49-1.005,4.767c0.366,2.964,2.292,5.571,4.694,7.255
					c2.315,1.624,5.598,1.238,7.678,3.141c2.63,2.407,12.491,17.07,14.637,19.951c2.146,2.881,5.165,5.913,7.037,4.342
					c0.077-0.065,0.358-0.301,0.436-0.366c1.872-1.57-0.59-5.07-3.055-7.684c-2.465-2.614-15.192-14.871-17.106-17.879
					C243.544,150.119,244.494,146.953,243.297,144.39z"/>
				<path style="fill:#A9924E;" d="M259.273,150.09l0.007,0.006l7.823-10.08c0.118-0.151,0.095-0.368-0.052-0.491l-0.062-0.052
					l-8.521,10.155c-0.077,0.092-0.215,0.104-0.307,0.027l-0.46-0.386c-0.092-0.077-0.104-0.215-0.027-0.307l8.317-9.912
					c0.113-0.134,0.095-0.335-0.039-0.447l0,0c-0.134-0.113-0.335-0.095-0.447,0.039l-8.317,9.912
					c-0.077,0.092-0.215,0.104-0.307,0.027l-0.46-0.386c-0.092-0.077-0.104-0.215-0.027-0.308l8.317-9.911
					c0.113-0.135,0.095-0.336-0.039-0.449l0,0c-0.135-0.113-0.336-0.096-0.449,0.039l-8.317,9.911
					c-0.077,0.092-0.215,0.104-0.307,0.027l-0.46-0.386c-0.092-0.077-0.104-0.215-0.027-0.307l8.521-10.155l-0.107-0.09
					c-0.171-0.143-0.425-0.125-0.573,0.042l-8.443,9.485l0.007,0.006c0,0-3.078,3.328-2.954,6.067
					c0.123,2.738-16.821,16.651-20.844,22.889c-0.034,0.04-2.623,3.14-0.544,4.885c2.08,1.745,4.683-1.344,4.716-1.384
					c5.445-5.046,16.204-24.148,18.922-24.502C256.53,153.699,259.273,150.09,259.273,150.09z"/>
			</g>
		</g>
	</g>
</g>
</svg>
